<svg xmlns="http://www.w3.org/2000/svg">
  <symbol id="icons__contrast"
        viewBox="0 0 32 32"
        width="32"
        height="32"
        fill="none"
        xmlns="http://www.w3.org/2000/svg">
    <g opacity=".3" fill="#283645">
      <path d="M16 4a12 12 0 1 1 0 24 12 12 0 0 1 0-24Zm0-4a16 16 0 1 0 0 32 16 16 0 0 0 0-32Z"/>
      <path d="M16 24.29a8.52 8.52 0 0 0 0-17"/>
    </g>
  </symbol>

  <symbol
      id="icons__fill"
      viewBox="0 0 48 43"
      width="48"
      height="43"
      fill="none">
    <path
      d="M33.12 17.88 15.24 0l-2.83 2.83 4.76 4.76L6.88 17.88a3 3 0 0 0 0 4.24l11 11a3 3 0 0 0 4.24 0l11-11a3 3 0 0 0 0-4.24ZM10.41 20 20 10.42 29.59 20H10.41ZM38 23s-4 4.33-4 7a4 4 0 1 0 8 0c0-2.67-4-7-4-7Zm10 17H0v3h48v-3Z"
      opacity=".5"
      fill="#283645"/>
  </symbol>

  <symbol
        id="icons__crop"
        viewBox="0 0 44 44"
        width="44"
        height="44"
        fill="none">
    <path d="M32 28h4V12a4 4 0 0 0-4-4H16v4h16v16Zm-20 4V0H8v8H0v4h8v20a4 4 0 0 0 4 4h20v8h4v-8h8v-4H12Z"
      fill="#D22856"/>
  </symbol>

  <symbol
        id="user-likes__icon"
        viewBox="0 0 13 12"
        width="13"
        height="12"
        fill="none">
    <path
      d="M6.469 12a.782.782 0 0 1-.58-.25C1.958 7.42 1.036 6.44.86 6.17A3.765 3.765 0 0 1 0 3.8a3.723 3.723 0 0 1 .63-2.045A3.921 3.921 0 0 1 2.3.355a4.09 4.09 0 0 1 2.187-.32A4.031 4.031 0 0 1 6.51.9 4.08 4.08 0 0 1 9.07 0a4.013 4.013 0 0 1 2.78 1.117A3.733 3.733 0 0 1 13 3.8a3.409 3.409 0 0 1-.923 2.38l-5.038 5.56a.757.757 0 0 1-.57.25V12ZM2.073 5.28c.218.26 2.56 2.84 4.396 4.86l4.478-4.94a1.96 1.96 0 0 0 .539-1.4c0-.618-.254-1.21-.707-1.648A2.461 2.461 0 0 0 9.07 1.47a2.61 2.61 0 0 0-1.097.252c-.341.163-.64.398-.873.688a.844.844 0 0 1-.612.28.757.757 0 0 1-.332-.082.729.729 0 0 1-.258-.218 2.43 2.43 0 0 0-.868-.682 2.49 2.49 0 0 0-2.372.132 2.369 2.369 0 0 0-.882.968 2.267 2.267 0 0 0 .296 2.462v.01Z"
      fill="#D22856"/>
  </symbol>

  <symbol
        id="android"
        viewBox="0 0 43 47"
        width="43"
        height="47"
        fill="none">
    <path d="M34.89 14.06H8.1V33.2c0 .92.34 1.8.96 2.47a3.7 3.7 0 0 0 2.43 1.16v7.46c.04.73.37 1.42.92 1.93a2.99 2.99 0 0 0 4.05 0c.55-.5.88-1.2.92-1.93v-7.44h8.24v7.44c.04.73.37 1.42.92 1.93a2.99 2.99 0 0 0 4.05 0c.55-.5.88-1.2.92-1.93v-7.46a3.7 3.7 0 0 0 2.43-1.16c.63-.67.97-1.55.97-2.46V14.4l-.03-.34ZM2.95 15.74c.78 0 1.53.3 2.08.85.56.54.87 1.27.87 2.04v12.4a2.84 2.84 0 0 1-.86 2.05 2.95 2.95 0 0 1-2.09.85c-.78 0-1.53-.3-2.09-.85A2.87 2.87 0 0 1 0 31.03v-12.4a2.84 2.84 0 0 1 .87-2.04 2.95 2.95 0 0 1 2.08-.85Zm37.11 0c.78 0 1.53.3 2.08.85.55.54.86 1.27.86 2.04v12.4a2.84 2.84 0 0 1-.86 2.05 2.95 2.95 0 0 1-2.08.85c-.79 0-1.54-.3-2.1-.85a2.87 2.87 0 0 1-.86-2.05v-12.4a2.84 2.84 0 0 1 .87-2.04 2.95 2.95 0 0 1 2.09-.85ZM8.17 12.06h26.57a10.4 10.4 0 0 0-3.26-7.3L34.05.5a.3.3 0 0 0-.12-.46.32.32 0 0 0-.42.1L31.09 4.3A16.7 16.7 0 0 0 21.46.9a16.98 16.98 0 0 0-9.58 3.4L9.5.2a.32.32 0 0 0-.18-.16.33.33 0 0 0-.25 0 .31.31 0 0 0-.11.42l2.5 4.25a10.44 10.44 0 0 0-3.29 7.36Zm17.7-5.21c0-.4.17-.78.45-1.06a1.55 1.55 0 0 1 2.17 0 1.49 1.49 0 0 1 0 2.12 1.55 1.55 0 0 1-2.17 0 1.49 1.49 0 0 1-.45-1.06Zm-11.38 0c0-.4.16-.78.45-1.06a1.55 1.55 0 0 1 2.17 0 1.49 1.49 0 0 1 0 2.12 1.55 1.55 0 0 1-2.17 0 1.49 1.49 0 0 1-.45-1.06Z"
        fill="#A4C639"/>
  </symbol>

  <symbol
        id="apple"
        viewBox="0 0 47 56"
        width="47"
        height="56"
        fill="none">
    <path d="M39.245 29.74a12.09 12.09 0 0 0 2.127 6.787A12.668 12.668 0 0 0 47 41.063a29.794 29.794 0 0 1-4 7.96c-2.401 3.413-4.905 6.816-8.844 6.904-3.938.09-5.088-2.219-9.526-2.219-4.437 0-5.8 2.15-9.465 2.288-3.663.139-6.686-3.718-9.088-7.111-4.956-6.905-8.752-19.639-3.664-28.2a13.925 13.925 0 0 1 5.024-5.037 14.489 14.489 0 0 1 6.935-1.977c3.724-.069 7.246 2.427 9.526 2.427 2.28 0 6.564-3.009 11.062-2.565a13.85 13.85 0 0 1 5.954 1.576 13.387 13.387 0 0 1 4.61 3.977c-.275.168-6.31 3.571-6.249 10.653h-.03ZM31.978 8.936C34.16 6.46 35.238 3.247 34.981 0c-3.305.302-6.364 1.82-8.55 4.241-1.862 2.092-3.5 5.445-3.053 8.66 3.247.247 6.555-1.597 8.57-3.945"
        fill="#fff"/>
  </symbol>

  <symbol
        id="microsoft"
        viewBox="0 0 44 41"
        width="44"
        height="41"
        fill="none">
    <path d="M20.9 19.52H0V0h20.9v19.52Z" fill="#F05423"/>
    <path d="M44 19.52H23.1V0H44v19.52Z" fill="#84C441"/>
    <path d="M20.9 41H0V21.48h20.9V41Z" fill="#2DABE2"/>
    <path d="M44 41H23.1V21.48H44V41Z" fill="#F9BC15"/>
  </symbol>

  <symbol
        id="main-footer__img"
        viewBox="0 0 145 40"
        width="145"
        height="40"
        fill="none">
    <path d="M71 18.55a1.29 1.29 0 0 1 1.26-1.29h7.13c5.06 0 8.39 2.7 8.39 7.13v.06c0 4.85-4.04 7.36-8.8 7.36h-5.44v6.8A1.28 1.28 0 0 1 72.27 40 1.27 1.27 0 0 1 71 38.61V18.55Zm8.07 10.97c3.7 0 6.14-2 6.14-4.99v-.06c0-3.2-2.4-4.87-5.96-4.87H73.6v9.88l5.48.04ZM92.6 18.39A1.28 1.28 0 0 1 93.85 17a1.27 1.27 0 0 1 1.27 1.39V38.6a1.28 1.28 0 0 1-1.26 1.4 1.27 1.27 0 0 1-1.27-1.39V18.4Zm9.07.03a1.28 1.28 0 0 1 1.26-1.25h.34a1.53 1.53 0 0 1 1.29.74l13.6 17.4V18.36a1.24 1.24 0 0 1 1.23-1.24 1.23 1.23 0 0 1 1.23 1.24v20.3a1.16 1.16 0 0 1-.32.83 1.13 1.13 0 0 1-.83.34h-.13a1.69 1.69 0 0 1-1.31-.78l-13.91-17.8v17.4a1.26 1.26 0 0 1-1.2 1.25 1.23 1.23 0 0 1-1.2-1.25V18.42h-.05Zm25.27-.03A1.28 1.28 0 0 1 128.2 17a1.27 1.27 0 0 1 1.26 1.39v12.3l12.76-13.14c.26-.27.62-.43 1-.45a1.27 1.27 0 0 1 1.21 1.26 1.3 1.3 0 0 1-.41.9l-7.95 7.9 8.57 10.52c.23.26.35.6.35.94a1.33 1.33 0 0 1-.4.92 1.29 1.29 0 0 1-.94.36 1.23 1.23 0 0 1-1-.58l-8.36-10.46-4.83 4.85v4.88a1.28 1.28 0 0 1-.78 1.17 1.26 1.26 0 0 1-1.74-1.17V18.4h-.01Z"
          fill="#283645"/>
    <path fill-rule="evenodd"
          clip-rule="evenodd"
          d="m53.9 6.59 5.03 21.14a1.42 1.42 0 0 1-.75 1.72c-.2.09-.43.13-.65.11h-4.01a11.63 11.63 0 0 1-11.49 10.32c-5.92 0-10.8-4.5-11.49-10.32h-1.96A11.75 11.75 0 0 1 16.97 40c-6 0-10.94-4.57-11.61-10.47H1.45A1.36 1.36 0 0 1 .3 29a1.42 1.42 0 0 1-.24-1.27L5.1 6.6C5.46 4.26 7.64 0 13.5 0c.38 0 .76.16 1.03.44a1.5 1.5 0 0 1 0 2.1c-.27.27-.65.43-1.03.43-4.71 0-5.44 3.7-5.5 4.1L3.34 26.6h2.03a11.75 11.75 0 0 1 11.6-10.3c5.94 0 10.84 4.48 11.6 10.3h1.99a11.63 11.63 0 0 1 11.47-10.19c5.89 0 10.75 4.46 11.48 10.23v-.06h2.14L51 7.08c-.07-.41-.77-4.1-5.5-4.1-.39 0-.76-.17-1.03-.44a1.5 1.5 0 0 1 0-2.1c.27-.28.64-.44 1.03-.44 5.85 0 8.03 4.26 8.38 6.59ZM25.66 29.56a9.12 9.12 0 0 0-.02-2.97 8.85 8.85 0 0 0-8.68-7.38 8.85 8.85 0 0 0-8.82 8.94 8.85 8.85 0 0 0 8.81 8.94c4.4 0 8.04-3.26 8.71-7.53Zm24.94 0a8.75 8.75 0 0 0-8.58-10.23 8.75 8.75 0 0 0-8.58 10.23 8.73 8.73 0 0 0 8.58 7.4c4.33 0 7.91-3.2 8.58-7.4Z"
          fill="#D22856"/>
  </symbol>

  <symbol
        id="social__icon-vk"
        viewBox="0 0 18 11"
        width="18"
        height="11"
        fill="none">
    <path
      fill-rule="evenodd"
      clip-rule="evenodd" d="M17.587.711c.125-.41 0-.711-.596-.711h-1.968c-.502 0-.732.26-.858.547 0 0-1.001 2.397-2.42 3.955-.458.451-.667.594-.917.594-.125 0-.314-.143-.314-.553V.71c0-.492-.138-.711-.555-.711H6.863c-.313 0-.5.228-.5.445 0 .465.709.573.781 1.884v2.849c0 .625-.114.738-.365.738-.667 0-2.291-2.408-3.255-5.164C3.337.216 3.148 0 2.645 0H.675C.112 0 0 .26 0 .547 0 1.06.667 3.6 3.109 6.962 4.736 9.256 7.027 10.5 9.115 10.5c1.252 0 1.406-.276 1.406-.752V8.013c0-.553.118-.663.515-.663.293 0 .793.144 1.962 1.25 1.335 1.312 1.554 1.9 2.306 1.9h1.969c.562 0 .844-.276.682-.822-.178-.543-.816-1.331-1.661-2.267-.46-.532-1.148-1.106-1.357-1.393-.292-.368-.208-.532 0-.86 0 0 2.4-3.32 2.65-4.447Z"
      fill="#D22856"/>
  </symbol>

  <symbol
        id="social__icon-tg"
        viewBox="0 0 16 14"
        width="16"
        height="14"
        fill="none">
    <path
      d="m15.7 1.2-2.37 11.21c-.18.8-.65.99-1.31.62l-3.63-2.67-1.74 1.68c-.2.2-.36.35-.73.35l.26-3.69 6.71-6.06c.3-.26-.06-.4-.45-.14l-8.3 5.22L.57 6.6c-.78-.24-.8-.77.16-1.15L14.7.07c.65-.24 1.21.14 1 1.13Z"
      fill="#D22856"/>
  </symbol>

  <symbol
        id="social__icon-yt"
        viewBox="0 0 15 13"
        width="15"
        height="13"
        fill="none">
    <path
      d="M1.83 12.8a1.25 1.25 0 0 1-1.28.04 1.1 1.1 0 0 1-.44-.46.97.97 0 0 1-.1-.6V1.22c-.03-.2 0-.41.1-.6C.2.42.35.27.55.16a1.26 1.26 0 0 1 1.28.03l12.4 5.5c1.03.45 1.03 1.17 0 1.62l-12.4 5.5Z"
      fill="#D22856"/>
  </symbol>

  <symbol
        id="copyright__icon"
        viewBox="0 0 27 34"
        width="27"
        height="34"
        fill="none">
    <path
      d="M13.64.02 13.5 0 0 1.4v24.61L13.5 34 27 26.01V1.41L13.64 0Zm11.6 25L13.5 31.96 1.77 25.02v-10.1l11.68 6.93.02 1.25-8.02-4.75v1.23l8.04 4.8.02 1.3-8.05-4.76v1.22l8.04 4.81 8.12-4.83V16.9l3.62-2.15v10.26Zm0-11.57L22 15.33l-1.48.88-7.06-4.19-.01 1.23 6.04 3.57-.06.03-.13.07-.86.5-4.98-2.95-.01 1.22 3.93 2.33-.93.61-.02.01-2.97-1.74-.01 1.23 1.94 1.13-1.98 1.19L1.8 13.58l11.63-6.96 11.8 6.83Zm0-1.22L13.43 5.3 1.77 12.22V2.99L13.5 1.76 25.23 3v9.24Z"
      fill="#D22856"/>
  </symbol>

  <symbol
        id="timer"
        viewBox="0 0 238 276">
    <g fill="#0074D9">
      <path d="m211.3 81.6 4.3-4.3c6.2-6.1 7.3-15.1 2.5-19.9-4.8-4.8-13.8-3.7-20 2.5l-4.2 4.3a118.3 118.3 0 0 0-59.7-25.6V31h6.1c8.7 0 15.9-7 15.9-15.5S149 0 140.3 0H97.7C89 0 82 7 82 15.5S89 31 97.7 31h6.1v7.6A119 119 0 0 0 1 141.8a119.3 119.3 0 0 0 150.8 129.6 119 119 0 0 0 59.6-189.8ZM119 245a87.9 87.9 0 0 1-86.3-105.3 88.2 88.2 0 0 1 120-64.2A88 88 0 0 1 119 245Z"
      fill="#DEDEDE"/>
      <path d="M48.906 70H1V59.922l17.203-17.39c5.094-5.22 8.422-8.829 9.985-10.829 1.562-2.031 2.687-3.906 3.375-5.625a14.26 14.26 0 0 0 1.03-5.344c0-2.75-.765-4.797-2.296-6.14-1.5-1.344-3.516-2.016-6.047-2.016-2.656 0-5.234.61-7.734 1.828-2.5 1.219-5.11 2.953-7.828 5.203L.811 10.281c3.375-2.875 6.172-4.906 8.391-6.094C11.422 3 13.843 2.095 16.47 1.47 19.094.812 22.03.484 25.28.484c4.282 0 8.063.782 11.344 2.344 3.281 1.563 5.828 3.75 7.64 6.563 1.813 2.812 2.72 6.03 2.72 9.656 0 3.156-.563 6.125-1.688 8.906-1.094 2.75-2.813 5.578-5.156 8.485-2.313 2.906-6.407 7.046-12.282 12.421l-8.812 8.297v.657h29.86V70Zm56.391-14.203h-8.25V70H82.89V55.797H53.64V45.719l30.047-44.25h13.359v43.078h8.25v11.25Zm-22.406-11.25V32.922c0-1.938.078-4.75.234-8.438.156-3.687.281-5.828.375-6.422h-.375a52.27 52.27 0 0 1-4.172 7.5L66.391 44.547h16.5Z"
        fill="#D22856" transform="translate(70, 115)"></path>
      <circle stroke="#d22856" fill="none" stroke-width="20" cx="120" cy="155" r="90"/>
    </g>
  </symbol>

  <symbol
        id="phone-icon"
        viewBox="0 0 20 19"
        width="20"
        height="19"
        fill="none">
    <path d="M10.04 0C6.465 0 2.908.608 1.583 1.815a6.392 6.392 0 0 0-1.58 3.892c-.003.055-.003.11 0 .164 0 .21.088.412.245.56a.86.86 0 0 0 .591.232l3.24-.25h.082a.865.865 0 0 0 .581-.237.78.78 0 0 0 .176-.256.746.746 0 0 0 .059-.3V4.046a.83.83 0 0 1 .067-.335.867.867 0 0 1 .198-.286.922.922 0 0 1 .299-.19.961.961 0 0 1 .353-.068h8.153c.246 0 .482.093.656.258a.856.856 0 0 1 .271.621v1.555a.77.77 0 0 0 .238.553c.152.148.36.234.578.239h.091l3.282.251a.876.876 0 0 0 .59-.232.79.79 0 0 0 .182-.257.756.756 0 0 0 .064-.303 1.45 1.45 0 0 0 0-.164 6.455 6.455 0 0 0-1.56-3.863C17.195.608 13.618 0 10.041 0Zm0 10.304c-.33 0-.653.093-.928.267a1.6 1.6 0 0 0-.615.71c-.127.29-.16.608-.095.916.064.307.223.59.457.81.234.222.531.373.856.434.324.061.66.03.965-.09.306-.12.567-.323.75-.583a1.526 1.526 0 0 0-.204-2.003 1.669 1.669 0 0 0-.544-.343 1.742 1.742 0 0 0-.641-.118ZM8.788 6.76v-.966a.94.94 0 0 0-.298-.683 1.048 1.048 0 0 0-.72-.283c-.271 0-.53.102-.722.283a.94.94 0 0 0-.298.683v.966l-5.728 5.688a1.932 1.932 0 0 0-.471.647 1.843 1.843 0 0 0-.16.772v1.584c0 .421.175.825.488 1.123a1.73 1.73 0 0 0 1.183.47h.418v.966a.97.97 0 0 0 .306.7c.097.092.212.165.339.215a1.096 1.096 0 0 0 1.138-.215.988.988 0 0 0 .227-.321.945.945 0 0 0 .079-.379v-.966h10.905v.966c0 .263.11.514.306.7.196.186.461.29.738.29.277 0 .543-.104.739-.29a.964.964 0 0 0 .306-.7v-.966h.418c.22 0 .438-.04.642-.121.203-.08.388-.198.543-.346a1.58 1.58 0 0 0 .362-.517c.083-.193.125-.4.124-.609v-1.584a1.844 1.844 0 0 0-.155-.77 1.933 1.933 0 0 0-.466-.65L13.382 6.76v-.966a.964.964 0 0 0-.305-.7 1.075 1.075 0 0 0-.74-.29c-.276 0-.542.105-.738.29a.964.964 0 0 0-.306.7v.966H8.787Zm1.254 1.931c.66 0 1.307.186 1.857.534.55.348.978.843 1.231 1.422.253.578.32 1.215.19 1.83a3.12 3.12 0 0 1-.915 1.621 3.403 3.403 0 0 1-1.711.867c-.649.123-1.32.06-1.931-.18a3.312 3.312 0 0 1-1.5-1.167 3.05 3.05 0 0 1-.564-1.76c0-.84.352-1.645.98-2.239a3.439 3.439 0 0 1 2.363-.928Z"
      fill="#D22856"/>
  </symbol>

  <symbol
        id="mail-icon"
        viewBox="0 0 18 13"
        width="18"
        height="13"
        fill="none">
    <path d="M14.91 1.68c1.2-.928.91-1.68-.65-1.68H3.73c-1.56 0-1.85.761-.66 1.68l3.75 2.898c.621.45 1.387.696 2.175.696.788 0 1.554-.245 2.175-.696l3.74-2.897Z" fill="#D22856"/><path d="M11.91 6.5 9.7 8.246a1.13 1.13 0 0 1-.26.111l-.1.047c-.109.042-.223.07-.34.083l-.33-.056-.12-.074a1.183 1.183 0 0 1-.24-.13L6.08 6.5l-3.9-2.971C1 2.6 0 3.027 0 4.476v5.859c-.003.347.069.692.21 1.014.14.322.348.615.61.863.263.247.576.444.92.58A3.04 3.04 0 0 0 2.83 13h12.32c.376 0 .748-.07 1.095-.203.347-.134.662-.331.927-.579.265-.247.475-.541.617-.865.142-.323.214-.669.211-1.018v-5.86c0-1.448-1-1.856-2.18-.928L11.91 6.5Z"
      fill="#D22856"/>
  </symbol>

</svg>
